<mxfile host="app.diagrams.net" modified="2022-01-02T12:09:15.290Z" agent="5.0 (Windows NT 10.0; Win64; x64) AppleWebKit/537.36 (KHTML, like Gecko) Chrome/96.0.4664.110 Safari/537.36 OPR/82.0.4227.50" etag="MaAIwYVR7EAL9XTSO-x1" version="16.1.2" type="github">
  <diagram id="s-WuJp_ndzBCc7Kw7t1l" name="Page-1">
    <mxGraphModel dx="868" dy="452" grid="1" gridSize="10" guides="1" tooltips="1" connect="1" arrows="1" fold="1" page="1" pageScale="1" pageWidth="827" pageHeight="1169" math="0" shadow="0">
      <root>
        <mxCell id="0" />
        <mxCell id="1" parent="0" />
        <mxCell id="ba7EIdEoEZ3AsYCKj1FA-2" value="Analizador LND" style="whiteSpace=wrap;html=1;aspect=fixed;fillColor=none;labelPosition=center;verticalLabelPosition=top;align=center;verticalAlign=bottom;" vertex="1" parent="1">
          <mxGeometry x="100" y="20" width="620" height="620" as="geometry" />
        </mxCell>
        <mxCell id="ba7EIdEoEZ3AsYCKj1FA-1" value="Usuario" style="shape=umlActor;verticalLabelPosition=bottom;verticalAlign=top;html=1;outlineConnect=0;" vertex="1" parent="1">
          <mxGeometry x="30" y="220" width="30" height="60" as="geometry" />
        </mxCell>
        <mxCell id="ba7EIdEoEZ3AsYCKj1FA-3" value="Leer ficheros" style="ellipse;whiteSpace=wrap;html=1;fillColor=#dae8fc;strokeColor=#6c8ebf;" vertex="1" parent="1">
          <mxGeometry x="160" y="100" width="110" height="60" as="geometry" />
        </mxCell>
        <mxCell id="ba7EIdEoEZ3AsYCKj1FA-4" value="Realizar análisis" style="ellipse;whiteSpace=wrap;html=1;fillColor=#dae8fc;strokeColor=#6c8ebf;" vertex="1" parent="1">
          <mxGeometry x="150" y="260" width="110" height="60" as="geometry" />
        </mxCell>
        <mxCell id="ba7EIdEoEZ3AsYCKj1FA-5" value="&amp;lt;&amp;lt;include&amp;gt;&amp;gt;" style="endArrow=classic;html=1;rounded=0;exitX=1;exitY=0.5;exitDx=0;exitDy=0;dashed=1;entryX=0;entryY=0.5;entryDx=0;entryDy=0;" edge="1" parent="1" source="ba7EIdEoEZ3AsYCKj1FA-4" target="ba7EIdEoEZ3AsYCKj1FA-8">
          <mxGeometry width="50" height="50" relative="1" as="geometry">
            <mxPoint x="390" y="290" as="sourcePoint" />
            <mxPoint x="400" y="250" as="targetPoint" />
          </mxGeometry>
        </mxCell>
        <mxCell id="ba7EIdEoEZ3AsYCKj1FA-6" value="" style="endArrow=classic;html=1;rounded=0;exitX=0.5;exitY=0.5;exitDx=0;exitDy=0;exitPerimeter=0;entryX=0;entryY=0.5;entryDx=0;entryDy=0;" edge="1" parent="1" source="ba7EIdEoEZ3AsYCKj1FA-1" target="ba7EIdEoEZ3AsYCKj1FA-3">
          <mxGeometry width="50" height="50" relative="1" as="geometry">
            <mxPoint x="390" y="380" as="sourcePoint" />
            <mxPoint x="440" y="330" as="targetPoint" />
          </mxGeometry>
        </mxCell>
        <mxCell id="ba7EIdEoEZ3AsYCKj1FA-7" value="" style="endArrow=classic;html=1;rounded=0;exitX=0.5;exitY=0.5;exitDx=0;exitDy=0;exitPerimeter=0;entryX=0;entryY=0.5;entryDx=0;entryDy=0;" edge="1" parent="1" source="ba7EIdEoEZ3AsYCKj1FA-1" target="ba7EIdEoEZ3AsYCKj1FA-4">
          <mxGeometry width="50" height="50" relative="1" as="geometry">
            <mxPoint x="55" y="260" as="sourcePoint" />
            <mxPoint x="159.99999999999898" y="220" as="targetPoint" />
          </mxGeometry>
        </mxCell>
        <mxCell id="ba7EIdEoEZ3AsYCKj1FA-8" value="Validación" style="ellipse;whiteSpace=wrap;html=1;fillColor=#f8cecc;strokeColor=#b85450;" vertex="1" parent="1">
          <mxGeometry x="390" y="260" width="110" height="60" as="geometry" />
        </mxCell>
        <mxCell id="ba7EIdEoEZ3AsYCKj1FA-9" value="Sistema" style="shape=umlActor;verticalLabelPosition=bottom;verticalAlign=top;html=1;outlineConnect=0;" vertex="1" parent="1">
          <mxGeometry x="740" y="470" width="30" height="60" as="geometry" />
        </mxCell>
        <mxCell id="ba7EIdEoEZ3AsYCKj1FA-10" value="Detectar error" style="ellipse;whiteSpace=wrap;html=1;fillColor=#dae8fc;strokeColor=#6c8ebf;" vertex="1" parent="1">
          <mxGeometry x="500" y="410" width="110" height="60" as="geometry" />
        </mxCell>
        <mxCell id="ba7EIdEoEZ3AsYCKj1FA-11" value="Generar informe" style="ellipse;whiteSpace=wrap;html=1;fillColor=#dae8fc;strokeColor=#6c8ebf;" vertex="1" parent="1">
          <mxGeometry x="500" y="470" width="110" height="60" as="geometry" />
        </mxCell>
        <mxCell id="ba7EIdEoEZ3AsYCKj1FA-12" value="XML" style="ellipse;whiteSpace=wrap;html=1;fillColor=#d5e8d4;strokeColor=#82b366;" vertex="1" parent="1">
          <mxGeometry x="350" y="30" width="91.67" height="50" as="geometry" />
        </mxCell>
        <mxCell id="ba7EIdEoEZ3AsYCKj1FA-13" value="DTD" style="ellipse;whiteSpace=wrap;html=1;fillColor=#d5e8d4;strokeColor=#82b366;" vertex="1" parent="1">
          <mxGeometry x="350" y="180" width="91.67" height="50" as="geometry" />
        </mxCell>
        <mxCell id="ba7EIdEoEZ3AsYCKj1FA-14" value="XSD" style="ellipse;whiteSpace=wrap;html=1;fillColor=#d5e8d4;strokeColor=#82b366;" vertex="1" parent="1">
          <mxGeometry x="350" y="130" width="91.67" height="50" as="geometry" />
        </mxCell>
        <mxCell id="ba7EIdEoEZ3AsYCKj1FA-15" value="HTML" style="ellipse;whiteSpace=wrap;html=1;fillColor=#d5e8d4;strokeColor=#82b366;" vertex="1" parent="1">
          <mxGeometry x="350" y="80" width="91.67" height="50" as="geometry" />
        </mxCell>
        <mxCell id="ba7EIdEoEZ3AsYCKj1FA-16" value="&amp;lt;&amp;lt;extend&amp;gt;&amp;gt;" style="endArrow=classic;html=1;rounded=0;exitX=0;exitY=0.5;exitDx=0;exitDy=0;dashed=1;entryX=1;entryY=0;entryDx=0;entryDy=0;" edge="1" parent="1" source="ba7EIdEoEZ3AsYCKj1FA-12" target="ba7EIdEoEZ3AsYCKj1FA-3">
          <mxGeometry width="50" height="50" relative="1" as="geometry">
            <mxPoint x="270" y="300" as="sourcePoint" />
            <mxPoint x="400" y="300" as="targetPoint" />
          </mxGeometry>
        </mxCell>
        <mxCell id="ba7EIdEoEZ3AsYCKj1FA-17" value="&amp;lt;&amp;lt;extend&amp;gt;&amp;gt;" style="endArrow=classic;html=1;rounded=0;exitX=0;exitY=0.5;exitDx=0;exitDy=0;dashed=1;entryX=0.973;entryY=0.317;entryDx=0;entryDy=0;entryPerimeter=0;" edge="1" parent="1" source="ba7EIdEoEZ3AsYCKj1FA-15" target="ba7EIdEoEZ3AsYCKj1FA-3">
          <mxGeometry width="50" height="50" relative="1" as="geometry">
            <mxPoint x="361.6699999999969" y="65" as="sourcePoint" />
            <mxPoint x="280" y="140" as="targetPoint" />
          </mxGeometry>
        </mxCell>
        <mxCell id="ba7EIdEoEZ3AsYCKj1FA-18" value="&amp;lt;&amp;lt;extend&amp;gt;&amp;gt;" style="endArrow=classic;html=1;rounded=0;exitX=0;exitY=0.5;exitDx=0;exitDy=0;dashed=1;entryX=0.973;entryY=0.7;entryDx=0;entryDy=0;entryPerimeter=0;" edge="1" parent="1" source="ba7EIdEoEZ3AsYCKj1FA-14" target="ba7EIdEoEZ3AsYCKj1FA-3">
          <mxGeometry width="50" height="50" relative="1" as="geometry">
            <mxPoint x="361.6699999999969" y="115" as="sourcePoint" />
            <mxPoint x="280" y="140" as="targetPoint" />
          </mxGeometry>
        </mxCell>
        <mxCell id="ba7EIdEoEZ3AsYCKj1FA-19" value="&amp;lt;&amp;lt;extend&amp;gt;&amp;gt;" style="endArrow=classic;html=1;rounded=0;exitX=0;exitY=0.5;exitDx=0;exitDy=0;dashed=1;entryX=1;entryY=1;entryDx=0;entryDy=0;" edge="1" parent="1" source="ba7EIdEoEZ3AsYCKj1FA-13" target="ba7EIdEoEZ3AsYCKj1FA-3">
          <mxGeometry width="50" height="50" relative="1" as="geometry">
            <mxPoint x="360" y="165" as="sourcePoint" />
            <mxPoint x="280" y="140" as="targetPoint" />
          </mxGeometry>
        </mxCell>
        <mxCell id="ba7EIdEoEZ3AsYCKj1FA-20" value="Crear .ZIP" style="ellipse;whiteSpace=wrap;html=1;fillColor=#dae8fc;strokeColor=#6c8ebf;" vertex="1" parent="1">
          <mxGeometry x="500" y="530" width="110" height="60" as="geometry" />
        </mxCell>
        <mxCell id="ba7EIdEoEZ3AsYCKj1FA-21" value="" style="endArrow=classic;html=1;rounded=0;exitX=0.5;exitY=0.5;exitDx=0;exitDy=0;exitPerimeter=0;entryX=1;entryY=0.5;entryDx=0;entryDy=0;" edge="1" parent="1" source="ba7EIdEoEZ3AsYCKj1FA-9" target="ba7EIdEoEZ3AsYCKj1FA-10">
          <mxGeometry width="50" height="50" relative="1" as="geometry">
            <mxPoint x="370" y="490" as="sourcePoint" />
            <mxPoint x="420" y="440" as="targetPoint" />
          </mxGeometry>
        </mxCell>
        <mxCell id="ba7EIdEoEZ3AsYCKj1FA-22" value="" style="endArrow=classic;html=1;rounded=0;exitX=0.5;exitY=0.5;exitDx=0;exitDy=0;exitPerimeter=0;entryX=1;entryY=0.5;entryDx=0;entryDy=0;" edge="1" parent="1" source="ba7EIdEoEZ3AsYCKj1FA-9" target="ba7EIdEoEZ3AsYCKj1FA-11">
          <mxGeometry width="50" height="50" relative="1" as="geometry">
            <mxPoint x="765" y="510" as="sourcePoint" />
            <mxPoint x="620" y="450" as="targetPoint" />
          </mxGeometry>
        </mxCell>
        <mxCell id="ba7EIdEoEZ3AsYCKj1FA-23" value="" style="endArrow=classic;html=1;rounded=0;exitX=0.5;exitY=0.5;exitDx=0;exitDy=0;exitPerimeter=0;entryX=1;entryY=0.5;entryDx=0;entryDy=0;" edge="1" parent="1" source="ba7EIdEoEZ3AsYCKj1FA-9" target="ba7EIdEoEZ3AsYCKj1FA-20">
          <mxGeometry width="50" height="50" relative="1" as="geometry">
            <mxPoint x="765" y="510" as="sourcePoint" />
            <mxPoint x="620" y="510" as="targetPoint" />
          </mxGeometry>
        </mxCell>
        <mxCell id="ba7EIdEoEZ3AsYCKj1FA-24" value="&amp;lt;&amp;lt;include&amp;gt;&amp;gt;" style="endArrow=classic;html=1;rounded=0;exitX=0;exitY=0.5;exitDx=0;exitDy=0;dashed=1;entryX=1;entryY=0.5;entryDx=0;entryDy=0;" edge="1" parent="1" target="ba7EIdEoEZ3AsYCKj1FA-25" source="ba7EIdEoEZ3AsYCKj1FA-20">
          <mxGeometry width="50" height="50" relative="1" as="geometry">
            <mxPoint x="190" y="555" as="sourcePoint" />
            <mxPoint x="330" y="515" as="targetPoint" />
          </mxGeometry>
        </mxCell>
        <mxCell id="ba7EIdEoEZ3AsYCKj1FA-25" value="Verificación" style="ellipse;whiteSpace=wrap;html=1;fillColor=#f8cecc;strokeColor=#b85450;" vertex="1" parent="1">
          <mxGeometry x="280" y="530" width="110" height="60" as="geometry" />
        </mxCell>
      </root>
    </mxGraphModel>
  </diagram>
</mxfile>
